# xmcd
# Track frame offsets:
# 150
# 12429
# 25248
# 36716
# 47740
# 57808
# 67215
# 78274
# 90366
# 105071
# 118548
# 130821
# 141311
# 152318
# 164165
# 175508
# 186640
# 201616
# 214741
# 227141
# 237403
# 249021
# 260692
# 273084
#
# Disc length: 3825 seconds
# Revision: 0
# Processed by: cddbd v1.5.1PL2 Copyright (c) Steve Scherf et al.
# Submitted via: VisiTrax 2.9.10.228 - For more info visit www.synapsa.com
#
DISCID=520eef18
DTITLE=Various Artist - Country Music Is Here To Stay (Volume One) Disc 4
DYEAR=1900
DGENRE=
TTITLE0=Johnny Cash  * - I Walk The Line
TTITLE1=Carl Perkins - Nonry Don't
TTITLE2=Mitchell Torok - Carribean
TTITLE3=Tex Williams  * - Don't Telephone, Don't Telegraph
TTITLE4=Jimmy Wakely  * - Slipping Around
TTITLE5=Jimmy Wakely  * - I'll Never Slip Around Again
TTITLE6=Tennessee Ernie Ford - Tennessee Border
TTITLE7=Peggy Lee  * - (Ghost) Riders In The Sky
TTITLE8=Tex Ritter - Rye Whisky
TTITLE9=Merle Travis - Divorce Me C.O.D.
TTITLE10=Red Ingle  * - Tim-Tayshun (Temptation)
TTITLE11=Faron Young - Live Fast, Love Hard, Die Young
TTITLE12=Hank Thompson  * - Humpty Dumpty Heart
TTITLE13=Johnny Cash - So Doggone Lonesome
TTITLE14=Tommy Collins - You Better Not Do That
TTITLE15=Sonny James - For Rent (One Empty Heart)
TTITLE16=Slim Whitman - Indian Love Call
TTITLE17=Cliffie Stone  * - When My Blue Moon Turns To Gold Again
TTITLE18=Jerry Lee Lweis  * - Breathless
TTITLE19=Carl Perkins - Blue Suede Shoes
TTITLE20=Tex Williams  * - That's What I Like About The West
TTITLE21=Foy Willing  * - Brush Those Tears From Your Eyes
TTITLE22=Hank Thompson  * - The Wild Side Of Life
TTITLE23=Tennessee Ernie Ford - Mule Train
EXTD=EMI 7243 5 21931 2 7
EXTT0=Johnny Cash and The Tennessee Trio.\n1956
EXTT1=1957
EXTT2=1953
EXTT3=Tex Williams and His Western Caravan.\n1948
EXTT4=Jimmy Wakely and Margaret Whiting.\n1949
EXTT5=Jimmy Wakely and Margaret Whiting.\n1949
EXTT6=1949
EXTT7=Peggy Lee with Dave Barbour's Orchestra and THe Judd Conlan Singers
EXTT7=\n1949
EXTT8=1948
EXTT9=1946
EXTT10=Red Ingle And The Natural Seven.\n1947
EXTT11=1955
EXTT12=Hank Thompson and His Bragos Valley Boys.\n1948
EXTT13=1956
EXTT14=1956
EXTT15=1956
EXTT16=1954
EXTT17=Cliffie Stone and His Orchestra.\n1948
EXTT18=Jerry Lee Lewis and His Pumping Piano.\n1958
EXTT19=1956
EXTT20=Tex Williams and His Western Caravan.\n1947
EXTT21=Foy Willing and His Riders Of The Purple Sage.\n1949
EXTT22=Hank Thompson and His Bragos Valley Boys.\n1954
EXTT23=1949
PLAYORDER=
